<svg width="16" height="16" viewBox="0 0 16 16" fill="none" xmlns="http://www.w3.org/2000/svg">
  <g id="Line/Collection-01">
    <g id="Flattened">
      <path
        d="M9.64645 7.14645C9.74022 7.05268 9.86739 7 10 7C10.1326 7 10.2598 7.05268 10.3536 7.14645C10.4473 7.24021 10.5 7.36739 10.5 7.5V9.5H12.5C12.6326 9.5 12.7598 9.55268 12.8536 9.64645C12.9473 9.74022 13 9.86739 13 10C13 10.1326 12.9473 10.2598 12.8536 10.3536C12.7598 10.4473 12.6326 10.5 12.5 10.5H10.5V12.5C10.5 12.6326 10.4473 12.7598 10.3536 12.8536C10.2598 12.9473 10.1326 13 10 13C9.86739 13 9.74022 12.9473 9.64645 12.8536C9.55268 12.7598 9.5 12.6326 9.5 12.5V10.5H7.5C7.36739 10.5 7.24022 10.4473 7.14645 10.3536C7.05268 10.2598 7 10.1326 7 10C7 9.86739 7.05268 9.74022 7.14645 9.64645C7.24022 9.55268 7.36739 9.5 7.5 9.5H9.5V7.5C9.5 7.36739 9.55268 7.24021 9.64645 7.14645Z"
        fill="currentColor" />
      <path fill-rule="evenodd" clip-rule="evenodd"
        d="M1 2.5C1 1.67765 1.67765 1 2.5 1H9.5C10.3224 1 11 1.67765 11 2.5V3H11.5C12.3223 3 13 3.67765 13 4.5V5H13.5C14.3223 5 15 5.67765 15 6.5V13.5C15 14.3223 14.3223 15 13.5 15H6.5C5.67765 15 5 14.3223 5 13.5V13H4.5C3.67765 13 3 12.3223 3 11.5V11H2.5C1.67765 11 1 10.3224 1 9.5V2.5ZM10 2.5C10 2.21435 9.78565 2 9.5 2H2.5C2.21435 2 2 2.21435 2 2.5V9.5C2 9.78565 2.21435 10 2.5 10H3V4.5C3 3.67765 3.67765 3 4.5 3H10V2.5ZM12 4.5C12 4.21435 11.7856 4 11.5 4H4.5C4.21435 4 4 4.21435 4 4.5V11.5C4 11.7857 4.21435 12 4.5 12H5V6.5C5 5.67765 5.67765 5 6.5 5H12V4.5ZM14 6.5C14 6.21435 13.7857 6 13.5 6H6.5C6.21435 6 6 6.21435 6 6.5V13.5C6 13.7857 6.21435 14 6.5 14H13.5C13.7857 14 14 13.7857 14 13.5V6.5Z"
        fill="currentColor" />
    </g>
  </g>
</svg>