<svg width="16" height="16" viewBox="0 0 16 16" fill="none" xmlns="http://www.w3.org/2000/svg">
  <g id="Line/Hand">
    <path id="Vector"
      d="M7.83337 1C7.24846 1 6.74874 1.35066 6.50199 1.8444C6.29788 1.73965 6.07663 1.66667 5.83337 1.66667C5.01087 1.66667 4.33337 2.34417 4.33337 3.16667V6.42643C4.17601 6.36972 4.00919 6.33333 3.83337 6.33333C3.01087 6.33333 2.33337 7.01083 2.33337 7.83333V10.1667C2.33337 12.3194 3.40959 13.5611 4.64262 14.1217C5.87564 14.6824 7.23223 14.6667 7.96423 14.6667H9.47856C11.5922 14.6858 13.3143 12.9635 13.3334 10.8548C13.3334 10.8533 13.3334 10.8518 13.3334 10.8503V4.5C13.3334 3.6775 12.6559 3 11.8334 3C11.655 3 11.4855 3.03673 11.3262 3.09505C11.2875 2.30586 10.6314 1.66667 9.83337 1.66667C9.59012 1.66667 9.36887 1.73965 9.16475 1.8444C8.91801 1.35066 8.41829 1 7.83337 1ZM7.83337 2C8.11554 2 8.33337 2.21783 8.33337 2.5V3.16667V7.5C8.33244 7.56626 8.34468 7.63204 8.36938 7.69352C8.39409 7.75501 8.43077 7.81097 8.47729 7.85815C8.52382 7.90534 8.57925 7.9428 8.64038 7.96838C8.70151 7.99395 8.76711 8.00712 8.83337 8.00712C8.89964 8.00712 8.96524 7.99395 9.02637 7.96838C9.0875 7.9428 9.14293 7.90534 9.18945 7.85815C9.23598 7.81097 9.27266 7.75501 9.29736 7.69352C9.32207 7.63204 9.33431 7.56626 9.33337 7.5V3.16667C9.33337 2.8845 9.55121 2.66667 9.83337 2.66667C10.1155 2.66667 10.3334 2.8845 10.3334 3.16667V4.5V7.83333C10.3324 7.89959 10.3447 7.96537 10.3694 8.02685C10.3941 8.08834 10.4308 8.1443 10.4773 8.19148C10.5238 8.23867 10.5793 8.27614 10.6404 8.30171C10.7015 8.32729 10.7671 8.34046 10.8334 8.34046C10.8996 8.34046 10.9652 8.32729 11.0264 8.30171C11.0875 8.27614 11.1429 8.23867 11.1895 8.19148C11.236 8.1443 11.2727 8.08834 11.2974 8.02685C11.3221 7.96537 11.3343 7.89959 11.3334 7.83333V4.5C11.3334 4.21783 11.5512 4 11.8334 4C12.1155 4 12.3334 4.21783 12.3334 4.5V10.8457C12.3191 12.419 11.0561 13.6809 9.48767 13.6667C9.48615 13.6667 9.48463 13.6667 9.48311 13.6667H7.96423C7.23223 13.6667 6.02299 13.651 5.05668 13.2116C4.09037 12.7722 3.33337 12.0139 3.33337 10.1667V7.83333C3.33337 7.55117 3.55121 7.33333 3.83337 7.33333C4.11554 7.33333 4.33337 7.55117 4.33337 7.83333V8.16667V9.60612C4.33244 9.67238 4.34468 9.73816 4.36938 9.79964C4.39409 9.86113 4.43077 9.91709 4.47729 9.96427C4.52382 10.0115 4.57925 10.0489 4.64038 10.0745C4.70151 10.1001 4.76711 10.1132 4.83337 10.1132C4.89964 10.1132 4.96524 10.1001 5.02637 10.0745C5.0875 10.0489 5.14293 10.0115 5.18945 9.96427C5.23598 9.91709 5.27266 9.86113 5.29736 9.79964C5.32207 9.73816 5.33431 9.67238 5.33337 9.60612V8.16667V7.83333V3.16667C5.33337 2.8845 5.55121 2.66667 5.83337 2.66667C6.11554 2.66667 6.33337 2.8845 6.33337 3.16667V7.5C6.33244 7.56626 6.34468 7.63204 6.36938 7.69352C6.39409 7.75501 6.43077 7.81097 6.47729 7.85815C6.52382 7.90534 6.57925 7.9428 6.64038 7.96838C6.70151 7.99395 6.76711 8.00712 6.83337 8.00712C6.89964 8.00712 6.96524 7.99395 7.02637 7.96838C7.0875 7.9428 7.14293 7.90534 7.18945 7.85815C7.23598 7.81097 7.27266 7.75501 7.29736 7.69352C7.32207 7.63204 7.33431 7.56626 7.33337 7.5V3.16667V2.5C7.33337 2.21783 7.55121 2 7.83337 2Z"
      fill="currentColor" />
  </g>
</svg>