<svg width="16" height="16" viewBox="0 0 16 16" fill="none" xmlns="http://www.w3.org/2000/svg">
  <g id="Line/Joystick" clip-path="url(#clip0_2387_4023)">
    <path id="Vector"
      d="M7.99997 0.666504C7.37497 0.666504 6.84291 0.918882 6.50127 1.30322C6.15963 1.68756 5.99997 2.18039 5.99997 2.6665C5.99997 3.15262 6.15963 3.64544 6.50127 4.02979C6.74306 4.3018 7.10197 4.46721 7.49997 4.56429V5.40283C7.0926 5.45781 6.69017 5.55639 6.31312 5.74723L1.13734 8.36702C0.909614 8.48231 0.794045 8.68868 0.733691 8.90999C0.688666 8.98791 0.665499 9.07652 0.666634 9.1665V11.7837C0.663157 11.8118 0.662068 11.8401 0.663379 11.8683C0.673203 12.1578 0.838444 12.4646 1.13604 12.6157L6.31442 15.2433C7.37548 15.7812 8.62399 15.7834 9.68682 15.2485L14.8626 12.6444C15.1828 12.4831 15.3492 12.1451 15.3379 11.8332C15.3374 11.814 15.3359 11.7949 15.3333 11.7759V9.1665C15.3346 9.06956 15.3077 8.97434 15.2558 8.89242C15.1892 8.69019 15.0773 8.50332 14.8665 8.39567L9.68747 5.75309C9.31056 5.56069 8.90762 5.46105 8.49997 5.40479V4.56429C8.89796 4.46721 9.25688 4.3018 9.49867 4.02979C9.8403 3.64544 9.99997 3.15262 9.99997 2.6665C9.99997 2.18039 9.8403 1.68756 9.49867 1.30322C9.15703 0.918882 8.62497 0.666504 7.99997 0.666504ZM7.99997 1.6665C8.37497 1.6665 8.59291 1.78913 8.75127 1.96729C8.90963 2.14544 8.99997 2.40262 8.99997 2.6665C8.99997 2.93039 8.90963 3.18756 8.75127 3.36572C8.59833 3.53779 8.38311 3.65261 8.03122 3.66064C8.01041 3.65934 7.98953 3.65934 7.96872 3.66064C7.61682 3.65261 7.40161 3.53779 7.24867 3.36572C7.0903 3.18756 6.99997 2.93039 6.99997 2.6665C6.99997 2.40262 7.0903 2.14544 7.24867 1.96729C7.40703 1.78913 7.62497 1.6665 7.99997 1.6665ZM7.49997 6.46338V8.83317C7.49903 8.89943 7.51127 8.96521 7.53598 9.02669C7.56069 9.08818 7.59737 9.14414 7.64389 9.19132C7.69041 9.23851 7.74585 9.27598 7.80697 9.30155C7.8681 9.32712 7.93371 9.34029 7.99997 9.34029C8.06623 9.34029 8.13183 9.32712 8.19296 9.30155C8.25409 9.27598 8.30953 9.23851 8.35605 9.19132C8.40257 9.14414 8.43925 9.08818 8.46396 9.02669C8.48866 8.96521 8.50091 8.89943 8.49997 8.83317V6.46533C8.74746 6.51366 9.00096 6.52524 9.23304 6.64372L14.1927 9.17497L9.23695 11.6834C8.45435 12.0794 7.54905 12.078 6.7682 11.6795L1.80856 9.14762L6.76429 6.63916C6.99726 6.52124 7.25172 6.51081 7.49997 6.46338ZM4.8333 8.6665C4.61229 8.6665 4.40033 8.71918 4.24405 8.81295C4.08776 8.90672 3.99997 9.0339 3.99997 9.1665C3.99997 9.29911 4.08776 9.42629 4.24405 9.52006C4.40033 9.61383 4.61229 9.6665 4.8333 9.6665C5.05431 9.6665 5.26628 9.61383 5.42256 9.52006C5.57884 9.42629 5.66663 9.29911 5.66663 9.1665C5.66663 9.0339 5.57884 8.90672 5.42256 8.81295C5.26628 8.71918 5.05431 8.6665 4.8333 8.6665ZM1.66663 10.1984L6.31377 12.5702C7.37492 13.1117 8.62471 13.114 9.68812 12.576C9.68834 12.576 9.68855 12.576 9.68877 12.576L14.3333 10.2251V11.7909L9.2376 14.3553C8.4551 14.7491 7.5485 14.7476 6.76689 14.3514L1.66663 11.7635V10.1984Z"
      fill="currentColor" />
  </g>
  <defs>
    <clipPath id="clip0_2387_4023">
      <rect width="16" height="16" fill="white" />
    </clipPath>
  </defs>
</svg>